<?xml version="1.0" encoding="UTF-8"?>
<svg xmlns="http://www.w3.org/2000/svg" xmlns:xlink="http://www.w3.org/1999/xlink" width="24px" height="24px" viewBox="0 0 24 24" version="1.1">
<g id="surface1">
<path style=" stroke:none;fill-rule:nonzero;fill:rgb(0%,0%,0%);fill-opacity:1;" d="M 12 1.714844 C 10.136719 1.714844 8.414062 2.175781 6.839844 3.09375 C 5.261719 4.011719 4.011719 5.261719 3.09375 6.839844 C 2.175781 8.414062 1.714844 10.136719 1.714844 12 C 1.714844 13.863281 2.175781 15.585938 3.09375 17.160156 C 4.011719 18.738281 5.261719 19.988281 6.839844 20.90625 C 8.414062 21.824219 10.136719 22.285156 12 22.285156 C 13.863281 22.285156 15.585938 21.824219 17.160156 20.90625 C 18.738281 19.988281 19.988281 18.738281 20.90625 17.160156 C 21.824219 15.585938 22.285156 13.863281 22.285156 12 C 22.285156 10.136719 21.824219 8.414062 20.90625 6.839844 C 19.988281 5.261719 18.738281 4.011719 17.160156 3.09375 C 15.585938 2.175781 13.863281 1.714844 12 1.714844 Z M 10.941406 4.664062 L 13.058594 4.664062 C 13.148438 4.664062 13.230469 4.691406 13.292969 4.746094 C 13.359375 4.800781 13.402344 4.871094 13.40625 4.949219 L 13.667969 6.707031 C 13.988281 6.808594 14.273438 6.925781 14.53125 7.058594 L 15.890625 6.042969 C 15.941406 5.980469 16.019531 5.953125 16.121094 5.953125 C 16.199219 5.953125 16.277344 5.980469 16.355469 6.046875 C 17.179688 6.808594 17.699219 7.347656 17.929688 7.667969 C 17.976562 7.722656 18 7.792969 18 7.878906 C 18 7.957031 17.972656 8.035156 17.925781 8.105469 C 17.824219 8.238281 17.667969 8.449219 17.4375 8.738281 C 17.207031 9.027344 17.035156 9.253906 16.921875 9.410156 C 17.085938 9.726562 17.214844 10.042969 17.316406 10.347656 L 19.058594 10.617188 C 19.144531 10.628906 19.207031 10.667969 19.261719 10.734375 C 19.3125 10.800781 19.335938 10.875 19.335938 10.957031 L 19.335938 13.078125 C 19.335938 13.152344 19.3125 13.230469 19.261719 13.300781 C 19.207031 13.371094 19.144531 13.410156 19.066406 13.425781 L 17.300781 13.691406 C 17.179688 14.035156 17.058594 14.324219 16.925781 14.558594 C 17.152344 14.878906 17.488281 15.316406 17.953125 15.878906 C 18.019531 15.957031 18.046875 16.035156 18.046875 16.121094 C 18.046875 16.199219 18.019531 16.269531 17.957031 16.335938 C 17.789062 16.570312 17.472656 16.917969 17.015625 17.367188 C 16.558594 17.816406 16.261719 18.046875 16.121094 18.046875 C 16.042969 18.046875 15.960938 18.019531 15.867188 17.957031 L 14.550781 16.925781 C 14.269531 17.074219 13.980469 17.199219 13.683594 17.292969 C 13.582031 18.160156 13.488281 18.75 13.40625 19.066406 C 13.359375 19.246094 13.246094 19.335938 13.058594 19.335938 L 10.941406 19.335938 C 10.851562 19.335938 10.769531 19.308594 10.707031 19.253906 C 10.640625 19.199219 10.597656 19.128906 10.59375 19.050781 L 10.332031 17.292969 C 10.011719 17.191406 9.726562 17.074219 9.46875 16.941406 L 8.121094 17.957031 C 8.058594 18.019531 7.980469 18.046875 7.878906 18.046875 C 7.792969 18.046875 7.714844 18.011719 7.644531 17.941406 C 6.84375 17.214844 6.316406 16.683594 6.070312 16.335938 C 6.023438 16.269531 6 16.199219 6 16.121094 C 6 16.042969 6.027344 15.964844 6.074219 15.894531 C 6.175781 15.761719 6.332031 15.550781 6.5625 15.261719 C 6.792969 14.972656 6.964844 14.746094 7.078125 14.589844 C 6.910156 14.273438 6.777344 13.957031 6.683594 13.640625 L 4.941406 13.382812 C 4.855469 13.371094 4.792969 13.332031 4.738281 13.265625 C 4.6875 13.199219 4.664062 13.125 4.664062 13.042969 L 4.664062 10.921875 C 4.664062 10.847656 4.6875 10.769531 4.738281 10.699219 C 4.792969 10.628906 4.851562 10.589844 4.921875 10.574219 L 6.699219 10.308594 C 6.785156 10.011719 6.914062 9.722656 7.074219 9.425781 C 6.816406 9.066406 6.472656 8.625 6.046875 8.109375 C 5.980469 8.035156 5.953125 7.957031 5.953125 7.878906 C 5.953125 7.816406 5.980469 7.746094 6.042969 7.664062 C 6.207031 7.433594 6.515625 7.089844 6.980469 6.636719 C 7.441406 6.183594 7.738281 5.953125 7.878906 5.953125 C 7.964844 5.953125 8.050781 5.980469 8.132812 6.046875 L 9.449219 7.074219 C 9.730469 6.925781 10.019531 6.800781 10.316406 6.707031 C 10.417969 5.839844 10.511719 5.25 10.59375 4.933594 C 10.640625 4.753906 10.753906 4.664062 10.941406 4.664062 Z M 12 9.558594 C 11.324219 9.558594 10.746094 9.792969 10.269531 10.269531 C 9.792969 10.746094 9.558594 11.324219 9.558594 12 C 9.558594 12.675781 9.792969 13.253906 10.269531 13.730469 C 10.746094 14.207031 11.324219 14.441406 12 14.441406 C 12.675781 14.441406 13.253906 14.207031 13.730469 13.730469 C 14.207031 13.253906 14.441406 12.675781 14.441406 12 C 14.441406 11.324219 14.207031 10.746094 13.730469 10.269531 C 13.253906 9.792969 12.675781 9.558594 12 9.558594 Z M 12 9.558594 "/>
</g>
</svg>
